<?xml version="1.0" encoding="UTF-8" ?>
<!DOCTYPE svg PUBLIC "-//W3C//DTD SVG 1.1//EN" "http://www.w3.org/Graphics/SVG/1.1/DTD/svg11.dtd">
<svg width="170pt" height="50pt" viewBox="0 0 170 50" version="1.1" xmlns="http://www.w3.org/2000/svg">
<path fill="#ffffff" d=" M 0.00 0.00 L 45.07 0.00 C 43.76 1.01 42.40 2.27 43.00 4.12 C 43.23 7.50 48.71 7.97 49.79 4.84 C 50.88 2.91 49.08 1.36 47.97 0.00 L 170.00 0.00 L 170.00 50.00 L 123.66 50.00 C 126.57 49.09 129.73 48.13 131.67 45.61 C 134.88 41.93 135.50 36.13 132.84 31.99 C 130.82 28.81 127.62 26.69 124.85 24.23 C 128.38 21.38 132.23 17.94 132.68 13.13 C 133.36 8.59 130.28 3.96 125.87 2.74 C 119.23 0.27 109.81 3.52 108.56 11.14 C 107.44 16.53 111.21 21.15 115.18 24.23 C 110.35 28.06 104.84 33.24 105.99 40.05 C 106.52 45.73 111.98 49.36 117.27 50.00 L 0.00 50.00 L 0.00 48.84 C 8.32 49.19 16.65 48.95 24.97 49.00 C 24.99 47.33 25.01 45.66 25.02 43.99 C 18.78 43.93 12.52 44.20 6.28 43.82 C 6.38 30.22 6.47 16.61 6.28 3.01 C 4.19 3.03 2.09 3.08 0.00 3.09 L 0.00 0.00 Z" />
<path fill="#d6d6bd" d=" M 45.07 0.00 L 47.97 0.00 C 49.08 1.36 50.88 2.91 49.79 4.84 C 48.71 7.97 43.23 7.50 43.00 4.12 C 42.40 2.27 43.76 1.01 45.07 0.00 Z" />
<path fill="#333312" d=" M 108.56 11.14 C 109.81 3.52 119.23 0.27 125.87 2.74 C 130.28 3.96 133.36 8.59 132.68 13.13 C 132.23 17.94 128.38 21.38 124.85 24.23 C 127.62 26.69 130.82 28.81 132.84 31.99 C 135.50 36.13 134.88 41.93 131.67 45.61 C 129.73 48.13 126.57 49.09 123.66 50.00 L 117.27 50.00 C 111.98 49.36 106.52 45.73 105.99 40.05 C 104.84 33.24 110.35 28.06 115.18 24.23 C 111.21 21.15 107.44 16.53 108.56 11.14 Z" />
<path fill="#e37272" d=" M 0.00 3.09 C 2.09 3.08 4.19 3.03 6.28 3.01 C 6.47 16.61 6.38 30.22 6.28 43.82 C 12.52 44.20 18.78 43.93 25.02 43.99 C 25.01 45.66 24.99 47.33 24.97 49.00 C 16.65 48.95 8.32 49.19 0.00 48.84 L 0.00 3.09 Z" />
<path fill="#aaaa8c" d=" M 81.17 4.16 C 83.00 2.36 85.81 3.21 88.10 2.97 C 88.25 16.62 88.07 30.28 88.17 43.94 C 91.78 43.99 95.38 43.98 98.99 44.00 C 98.98 45.67 98.97 47.33 98.97 48.99 C 89.89 49.19 80.81 48.99 71.73 48.95 C 71.64 47.32 71.64 45.68 71.71 44.05 C 75.37 44.01 79.03 44.07 82.68 43.77 C 82.58 32.17 82.70 20.56 82.59 8.96 C 79.10 11.14 75.88 14.09 71.60 14.54 C 71.93 13.05 70.83 10.60 72.55 9.70 C 75.56 8.08 78.61 6.47 81.17 4.16 Z" />
<path fill="#ffffff" d=" M 114.07 15.00 C 112.23 11.21 116.04 6.71 120.00 6.96 C 123.47 6.61 127.34 9.34 127.18 13.03 C 126.98 16.85 123.83 19.45 121.05 21.62 C 118.50 19.72 115.50 17.98 114.07 15.00 Z" />
<path fill="#2a6883" d=" M 156.90 15.59 C 161.79 13.52 168.42 16.60 169.25 22.02 C 168.75 30.97 169.06 39.95 169.00 48.92 C 167.40 48.95 165.81 48.95 164.21 48.91 C 164.33 41.93 164.25 34.95 164.28 27.97 C 164.19 25.30 164.16 21.89 161.42 20.49 C 158.46 19.00 155.27 21.16 153.08 23.06 C 150.65 25.45 147.69 28.26 147.98 31.98 C 148.00 37.66 148.00 43.34 147.99 49.03 C 146.09 49.01 144.20 48.95 142.30 48.83 C 142.58 37.87 142.15 26.89 142.52 15.94 C 144.34 15.97 146.16 16.00 147.99 16.01 C 147.99 18.18 148.01 20.34 148.09 22.50 C 150.60 19.73 153.18 16.73 156.90 15.59 Z" />
<path fill="#d6d6bd" d=" M 34.79 16.05 C 39.56 16.00 44.33 15.97 49.11 16.01 C 49.26 25.33 49.11 34.65 49.10 43.97 C 52.13 43.98 55.15 44.00 58.18 44.01 C 58.31 45.67 58.35 47.34 58.28 49.00 C 53.48 49.03 48.68 49.02 43.88 48.97 C 43.36 39.75 43.78 30.49 43.67 21.26 C 40.69 20.98 37.69 20.91 34.70 20.90 C 34.71 19.28 34.72 17.66 34.79 16.05 Z" />
<path fill="#ffffff" d=" M 112.23 40.15 C 110.46 34.51 115.57 30.00 119.66 27.06 C 123.14 30.45 128.81 33.32 128.58 38.87 C 127.24 46.55 115.01 47.04 112.23 40.15 Z" />
</svg>
